<svg width="732" height="732" viewBox="0 0 732 732" fill="none" xmlns="http://www.w3.org/2000/svg">
<path d="M622 110H110V326.216L129.006 281.82H162.409L172.776 305.459V281.82H214.243L221.154 299.694L226.913 281.82H411.786V291.045C419.713 285.474 426.76 281.82 434.823 281.82H497.024L507.966 306.613V281.82H543.098L551.737 296.234V281.82H586.868V362.541H551.737L543.098 348.703V362.541H492.416L487.809 349.856H473.987L469.379 362.541H434.823C425.085 361.628 419.922 360.039 411.786 353.315V362.541H360.529L350.162 349.856V362.541H157.226L152.619 349.856H139.372L134.765 362.541H110V622H622V461.135C617.393 465.748 612.209 467.477 606.45 467.477H432.52L423.305 455.369V467.477H389.325V444.991C386.445 447.297 380.686 448.45 378.382 448.45H362.832V467.477H312.151L302.936 455.369L293.721 467.477H209.636V387.333H294.297L303.512 398.865L312.727 387.333H622V110Z" fill="#066FD1"/>
<path d="M622 397.135H586.868C579.381 397.135 569.015 405.207 569.015 415.586C569.015 425.387 575.926 434.036 584.565 434.036H601.267C605.298 434.036 607.602 436.919 607.602 439.225C607.602 442.108 604.722 444.414 601.267 444.414H570.742V457.099H605.298C613.361 457.099 622 450.18 622 439.225C622 427.117 613.361 421.351 605.298 421.351H588.596C585.141 421.351 583.413 417.892 583.413 415.586C583.413 413.279 585.717 410.396 588.596 410.396H614.513L622 397.135Z" fill="#066FD1"/>
<path fill-rule="evenodd" clip-rule="evenodd" d="M110 351.586H127.278L131.309 340.054H159.53L164.713 352.739H181.415L156.074 292.198H135.917L110 351.586ZM145.708 306.613L137.645 327.369H154.346L145.708 306.613Z" fill="#066FD1"/>
<path d="M183.719 352.739V292.198H206.756L221.154 330.252L234.4 292.198H258.014V352.739H243.039V308.919L226.913 352.739H214.243L198.693 308.919V352.739H183.719Z" fill="#066FD1"/>
<path d="M268.38 292.198V352.739H317.91V338.901H283.93V328.523H317.91V315.261H283.93V305.459H317.91V292.198H268.38Z" fill="#066FD1"/>
<path fill-rule="evenodd" clip-rule="evenodd" d="M326.549 292.198V352.739H341.523V330.829H347.282L366.288 352.739H384.142L364.56 330.829C373.775 328.523 380.686 321.604 380.686 311.225C380.686 302 372.623 292.198 364.56 292.198H326.549ZM341.523 318.144V305.459H359.953C362.256 305.459 365.712 308.342 365.712 311.802C365.712 315.261 362.256 318.144 359.953 318.144H341.523Z" fill="#066FD1"/>
<path d="M387.021 352.739V292.198H401.996V352.739H387.021Z" fill="#066FD1"/>
<path d="M455.557 292.198V306.613H435.975C429.064 306.613 424.457 312.955 424.457 323.333C424.457 334.865 431.944 338.901 444.614 338.901L438.279 352.162C423.305 352.162 409.483 342.36 409.483 323.333C409.289 302.841 423.305 292.198 432.52 292.198H455.557Z" fill="#066FD1"/>
<path fill-rule="evenodd" clip-rule="evenodd" d="M471.683 292.198L445.766 352.162H462.468L467.075 339.477H494.144L499.327 352.162H516.029L490.688 292.198H471.683ZM472.259 326.793L480.898 306.613L489.537 326.793H472.259Z" fill="#066FD1"/>
<path d="M518.333 292.198V352.162H533.307V313.532L558.648 352.162H577.078V292.198H561.528V329.099L537.339 292.198H518.333Z" fill="#066FD1"/>
<path d="M219.426 457.676V396.559H268.956V410.973H235.552V420.775H268.956V433.459H235.552V443.838H268.956V457.676H219.426Z" fill="#066FD1"/>
<path d="M294.297 427.694L270.684 396.559H289.114L303.512 415.586L317.91 396.559H336.34L311.575 427.694L335.764 457.676H317.334L302.936 438.649L289.114 457.676H270.684L294.297 427.694Z" fill="#066FD1"/>
<path fill-rule="evenodd" clip-rule="evenodd" d="M338.068 457.676V396.559H374.927C384.718 396.559 392.781 407.514 392.781 418.468C392.781 429.423 382.99 438.072 374.927 438.072H353.618V457.676H338.068ZM368.592 410.396C373.775 410.396 377.231 413.279 377.231 417.892C377.231 422.505 374.351 425.387 368.592 425.387H353.042V410.396H368.592Z" fill="#066FD1"/>
<path fill-rule="evenodd" clip-rule="evenodd" d="M399.116 457.676V397.135H434.247C442.886 397.135 453.253 405.207 453.253 416.739C453.253 425.964 444.614 435.189 437.127 435.766L456.709 457.676H438.855L420.425 435.766H414.09V457.676H399.116ZM414.09 410.396V423.081H431.944C434.823 423.081 438.279 420.775 438.279 416.739C438.279 412.703 434.823 410.396 431.944 410.396H414.09Z" fill="#066FD1"/>
<path d="M459.588 457.676V397.135H508.542V410.396H475.138V420.775H508.542V433.459H475.138V443.838H508.542V457.676H459.588Z" fill="#066FD1"/>
<path d="M514.877 457.099V444.991H545.978C549.433 444.991 552.313 442.685 552.313 439.802C552.313 436.919 549.433 434.036 545.978 434.036H531.579C520.061 434.036 513.15 425.387 513.15 415.586C513.15 405.784 521.213 397.135 531.579 397.135H566.711L560.376 410.396H533.883C530.427 410.396 528.124 412.703 528.124 415.586C528.124 418.468 531.003 420.775 533.883 420.775H551.737C555.768 420.775 567.287 426.541 567.287 438.072C567.287 450.18 555.768 457.099 551.737 457.099H514.877Z" fill="#066FD1"/>
</svg>
