<svg width="732" height="732" viewBox="0 0 732 732" fill="none" xmlns="http://www.w3.org/2000/svg">
<path d="M622.446 290.388C588.605 239.628 529.385 200.5 455.359 200.5C383.449 200.5 319.998 237.513 285.101 290.388H336.918C373.931 251.26 416.232 239.628 455.359 239.628C496.602 239.628 539.96 256.548 570.628 290.388H622.446Z" fill="#FD0100"/>
<path d="M297.489 492.3C283.808 509.195 265.252 521.463 244.348 527.434C223.445 533.404 201.209 532.787 180.668 525.667C160.128 518.546 142.281 505.269 129.558 487.641C116.834 470.014 109.853 448.893 109.564 427.156C109.274 405.418 115.692 384.119 127.942 366.16C140.192 348.2 157.679 334.452 178.023 326.788C198.367 319.124 220.579 317.916 241.634 323.328C262.689 328.741 281.564 340.511 295.69 357.036L267.123 385.564C258.496 375.472 244.244 366.503 231.385 363.198C218.478 361.241 203.702 360.751 192.04 366.16C173.005 374.989 155.027 397.196 155.027 425.749C155.027 455.359 171.947 475.452 192.04 484.97C201.203 489.31 223.765 490.501 233.043 487.851C245.809 484.205 258.767 476.253 267.123 465.934L297.489 492.3Z" fill="white"/>
<path d="M316.826 323.328V525.667H359.126V323.328H316.826Z" fill="white"/>
<path d="M394.024 323.328V361.241H428.922V484.97C428.922 502.947 441.612 528.327 477.567 528.327C510.35 528.327 523.04 510.35 523.04 476.51C513.522 487.085 499.775 492.3 492.372 492.3C483.912 492.3 472.279 486.027 472.279 474.395V361.241H512.465V323.328H472.279V260.778L428.922 281.928V323.328H394.024Z" fill="white"/>
<path d="M554.765 323.328V525.667H594.95V323.328H554.765Z" fill="white"/>
</svg>
