<svg width="732" height="732" viewBox="0 0 732 732" fill="none" xmlns="http://www.w3.org/2000/svg">
<path fill-rule="evenodd" clip-rule="evenodd" d="M264.813 516.247L285.255 369.066L305.697 228.018C307.741 217.797 313.873 213.499 324.094 213.499C361.994 213.499 399.163 213.574 429.041 213.634C449.119 213.675 465.905 213.709 477.407 213.709C493.761 213.709 502.032 218.949 510.114 230.062C510.114 158.516 442.656 111.5 401.773 111.5L238.239 111.5C228.018 111.5 219.841 113.544 217.797 125.809L160.56 516.247H264.813Z" fill="white"/>
<path d="M324.094 213.499C313.873 213.499 307.741 217.797 305.697 228.018L285.255 369.066H389.508C432.436 369.066 510.114 313.874 510.114 230.062C502.032 218.949 493.761 213.709 477.407 213.709C465.905 213.709 449.119 213.675 429.041 213.634C399.163 213.574 361.994 213.499 324.094 213.499Z" fill="#4D4D4D"/>
<path d="M324.094 213.499C313.873 213.499 307.741 217.797 305.697 228.018L285.255 369.066H389.508C432.436 369.066 510.114 313.874 510.114 230.062C502.032 218.949 493.761 213.709 477.407 213.709C465.905 213.709 449.119 213.675 429.041 213.634C399.163 213.574 361.994 213.499 324.094 213.499Z" fill="#AFBDD8"/>
<path d="M285.255 369.066L264.813 516.247L250.504 620.5H348.624L367.022 479.452C369.066 469.231 375.199 465.143 381.331 465.143H446.745C506.026 465.143 571.44 407.906 571.44 330.227C571.44 272.99 532.6 230.062 510.114 230.062C510.114 313.874 432.436 369.066 389.508 369.066H285.255Z" fill="#738EBD"/>
</svg>
