<svg width="732" height="732" viewBox="0 0 732 732" fill="none" xmlns="http://www.w3.org/2000/svg">
<path d="M194.537 620H176.521C191.514 554.259 201.431 519.593 222.091 462.096L205.135 364.598L298.394 244.845C353.334 233.675 382.932 228.527 427.684 226.829C305.37 369.981 259.004 457.625 194.537 620Z" fill="#00C805"/>
<path d="M386.354 479.052C334.031 492.79 305.792 502.99 256.003 522.502C314.656 404.147 356.106 341.912 443.581 237.427C445.422 291.305 446.733 321.132 449.939 373.076C423.268 414.721 409.159 437.941 386.354 479.052Z" fill="#00C805"/>
<path d="M337.605 510.845C302.675 522.253 282.985 529.317 247.525 543.697L231.629 582.908C268.009 565.067 288.417 555.369 324.887 539.458L337.605 510.845Z" fill="#00C805"/>
<path d="M459.477 204.574L315.35 223.65L410.728 127.212C423.445 114.495 510.345 102.067 535.78 124.033C557.868 143.109 559.094 226.829 550.616 237.427L465.835 345.522L459.477 204.574Z" fill="#00C805"/>
</svg>
